<svg width="34" height="28" viewBox="0 0 34 28" fill="none" xmlns="http://www.w3.org/2000/svg">
<path d="M29.7223 14C29.7223 21.4609 23.7394 27.5 16.3704 27.5C9.00138 27.5 3.01855 21.4609 3.01855 14C3.01855 6.53913 9.00138 0.5 16.3704 0.5C23.7394 0.5 29.7223 6.53913 29.7223 14Z" stroke="#5E727C"/>
<path d="M19.7355 14.7954L20.062 12.4921H18.0206V10.9974C18.0206 10.3672 18.3057 9.75301 19.22 9.75301H20.1481V7.79196C20.1481 7.79196 19.3059 7.63635 18.5007 7.63635C16.8195 7.63635 15.7206 8.73955 15.7206 10.7366V12.4921H13.8518V14.7954H15.7206V20.3636H18.0206V14.7954H19.7355Z" fill="#5E727C"/>
</svg>
