<svg width="35" height="28" viewBox="0 0 35 28" fill="none" xmlns="http://www.w3.org/2000/svg">
<path d="M31.9074 14C31.9074 21.4472 25.7559 27.5 18.1482 27.5C10.5405 27.5 4.38892 21.4472 4.38892 14C4.38892 6.55277 10.5405 0.5 18.1482 0.5C25.7559 0.5 31.9074 6.55277 31.9074 14Z" stroke="#5E727C"/>
<path d="M18.1498 10.7369C16.1266 10.7369 14.4947 12.1938 14.4947 14C14.4947 15.8062 16.1266 17.2631 18.1498 17.2631C20.173 17.2631 21.8049 15.8062 21.8049 14C21.8049 12.1938 20.173 10.7369 18.1498 10.7369ZM18.1498 16.1214C16.8423 16.1214 15.7735 15.1701 15.7735 14C15.7735 12.8299 16.8392 11.8785 18.1498 11.8785C19.4604 11.8785 20.5261 12.8299 20.5261 14C20.5261 15.1701 19.4572 16.1214 18.1498 16.1214ZM22.8069 10.6034C22.8069 11.0266 22.4252 11.3645 21.9544 11.3645C21.4804 11.3645 21.1018 11.0237 21.1018 10.6034C21.1018 10.1831 21.4836 9.84229 21.9544 9.84229C22.4252 9.84229 22.8069 10.1831 22.8069 10.6034ZM25.2277 11.3759C25.1736 10.3563 24.9128 9.45322 24.0762 8.70915C23.2427 7.96508 22.2311 7.7322 21.0891 7.68108C19.9121 7.62144 16.3843 7.62144 15.2073 7.68108C14.0684 7.72936 13.0568 7.96224 12.2202 8.70631C11.3836 9.45038 11.1259 10.3535 11.0687 11.373C11.0019 12.4238 11.0019 15.5733 11.0687 16.6241C11.1227 17.6437 11.3836 18.5468 12.2202 19.2908C13.0568 20.0349 14.0652 20.2678 15.2073 20.3189C16.3843 20.3785 19.9121 20.3785 21.0891 20.3189C22.2311 20.2706 23.2427 20.0377 24.0762 19.2908C24.9096 18.5468 25.1705 17.6437 25.2277 16.6241C25.2945 15.5733 25.2945 12.4267 25.2277 11.3759ZM23.7071 17.7516C23.459 18.3082 22.9787 18.737 22.352 18.9614C21.4136 19.2937 19.1868 19.217 18.1498 19.217C17.1127 19.217 14.8828 19.2908 13.9475 18.9614C13.3241 18.7399 12.8437 18.311 12.5924 17.7516C12.2202 16.9138 12.3061 14.9258 12.3061 14C12.3061 13.0742 12.2234 11.0834 12.5924 10.2484C12.8405 9.69177 13.3209 9.26294 13.9475 9.03858C14.886 8.70631 17.1127 8.78299 18.1498 8.78299C19.1868 8.78299 21.4168 8.70915 22.352 9.03858C22.9755 9.2601 23.4558 9.68893 23.7071 10.2484C24.0793 11.0862 23.9934 13.0742 23.9934 14C23.9934 14.9258 24.0793 16.9166 23.7071 17.7516Z" fill="#5E727C"/>
</svg>
