<svg width="34" height="28" viewBox="0 0 34 28" fill="none" xmlns="http://www.w3.org/2000/svg">
<ellipse cx="17.6297" cy="14" rx="13.8519" ry="14" fill="#F2A64C"/>
<path d="M20.4523 15.9363C19.7801 16.3687 18.8552 16.5402 18.2443 16.6048L18.757 17.1167L20.6289 19.0128C21.3134 19.7235 20.1996 20.8343 19.5078 20.1485C19.0392 19.6664 18.3522 18.9706 17.6359 18.2449L15.764 20.146C15.0722 20.8294 13.9584 19.7086 14.6502 19.0103C15.1261 18.5282 15.8057 17.8324 16.5221 17.1142L17.0275 16.6023C16.4239 16.5377 15.4843 16.3762 14.8048 15.9339C14.005 15.412 13.6542 15.1063 13.9633 14.4677C14.1448 14.1049 14.6428 13.7992 15.3028 14.326C15.3028 14.326 16.1933 15.0442 17.631 15.0442C19.0686 15.0442 19.9592 14.326 19.9592 14.326C20.6191 13.8017 21.1147 14.1049 21.2987 14.4677C21.6029 15.1063 21.2521 15.412 20.4523 15.9363ZM14.4466 10.8594C14.4466 9.07768 15.8769 7.63637 17.6285 7.63637C19.3802 7.63637 20.8105 9.07768 20.8105 10.8594C20.8105 12.6337 19.3802 14.0751 17.6285 14.0751C15.8769 14.0751 14.4466 12.6337 14.4466 10.8594ZM16.0658 10.8594C16.0658 11.7317 16.7674 12.4424 17.6285 12.4424C18.4896 12.4424 19.1913 11.7317 19.1913 10.8594C19.1913 9.97974 18.4896 9.26903 17.6285 9.26903C16.7674 9.26903 16.0658 9.97974 16.0658 10.8594Z" fill="white"/>
</svg>
