<svg width="16" height="15" viewBox="0 0 16 15" fill="none" xmlns="http://www.w3.org/2000/svg">
<g clip-path="url(#clip0_10_38747)">
<ellipse cx="7.9985" cy="7.2705" rx="7.31802" ry="7.2705" fill="#F2A64C"/>
<path d="M9.48975 8.27611C9.13462 8.50067 8.64599 8.58971 8.32327 8.62327L8.59415 8.88911L9.58307 9.87378C9.94468 10.2429 9.35626 10.8197 8.99076 10.4636C8.7432 10.2132 8.38029 9.85185 8.00183 9.47501L7.01291 10.4623C6.64741 10.8172 6.05898 10.2351 6.42448 9.87249C6.67593 9.62213 7.03494 9.26078 7.41341 8.88782L7.6804 8.62197C7.36156 8.58842 6.86516 8.50454 6.50614 8.27482C6.08361 8.00381 5.89827 7.84508 6.06157 7.51341C6.15749 7.325 6.42059 7.16626 6.76924 7.43985C6.76924 7.43985 7.23973 7.81282 7.99924 7.81282C8.75875 7.81282 9.22924 7.43985 9.22924 7.43985C9.57789 7.16755 9.8397 7.325 9.93691 7.51341C10.0976 7.84508 9.91228 8.00381 9.48975 8.27611ZM6.31691 5.63957C6.31691 4.71426 7.07253 3.96576 7.99795 3.96576C8.92336 3.96576 9.67898 4.71426 9.67898 5.63957C9.67898 6.56101 8.92336 7.30951 7.99795 7.30951C7.07253 7.30951 6.31691 6.56101 6.31691 5.63957ZM7.17233 5.63957C7.17233 6.09255 7.54301 6.46164 7.99795 6.46164C8.45288 6.46164 8.82356 6.09255 8.82356 5.63957C8.82356 5.18272 8.45288 4.81363 7.99795 4.81363C7.54301 4.81363 7.17233 5.18272 7.17233 5.63957Z" fill="white"/>
</g>
<defs>
<clipPath id="clip0_10_38747">
<rect width="14.636" height="14.541" fill="white" transform="translate(0.680481)"/>
</clipPath>
</defs>
</svg>
