<svg width="35" height="28" viewBox="0 0 35 28" fill="none" xmlns="http://www.w3.org/2000/svg">
<ellipse cx="18.1482" cy="14" rx="14.2593" ry="14" fill="#7CB3CE"/>
<path d="M24.4659 11.4436C24.4721 11.554 24.4744 11.6656 24.4744 11.776C24.4744 15.174 21.5319 19.0909 16.1513 19.0909C14.4983 19.0909 12.9616 18.6653 11.6666 17.9353C12.4326 18.0167 13.2093 17.9647 13.9523 17.7821C14.6954 17.5996 15.3902 17.2902 15.9971 16.8716C15.3868 16.8615 14.7953 16.684 14.3053 16.364C13.8154 16.044 13.4515 15.5975 13.2646 15.0868C13.7033 15.1589 14.1547 15.1438 14.5859 15.0426C13.9238 14.9246 13.3284 14.6091 12.9008 14.1495C12.4731 13.6899 12.2394 13.1146 12.2393 12.5209V12.4889C12.6456 12.6875 13.0999 12.7979 13.5645 12.811C12.9444 12.4478 12.5055 11.8903 12.3373 11.2524C12.1691 10.6144 12.2843 9.94413 12.6593 9.37828C13.3938 10.1726 14.3103 10.8223 15.3491 11.2851C16.388 11.7479 17.526 12.0135 18.6893 12.0647C18.639 11.8724 18.6138 11.6757 18.6141 11.4784C18.6141 11.1409 18.6898 10.8068 18.8368 10.495C18.9838 10.1832 19.1992 9.89997 19.4708 9.66138C19.7424 9.42279 20.0648 9.23355 20.4197 9.10447C20.7745 8.97539 21.1548 8.909 21.5388 8.90909C21.9391 8.90852 22.3352 8.98021 22.7026 9.11973C23.07 9.25924 23.4008 9.4636 23.6746 9.72012C24.3296 9.6062 24.9577 9.39527 25.5322 9.09636C25.3137 9.69166 24.8565 10.197 24.2458 10.5182C24.8256 10.4578 25.392 10.3215 25.9259 10.1137C25.5336 10.6302 25.0391 11.0806 24.4659 11.4436Z" fill="white"/>
</svg>
