<svg width="34" height="28" viewBox="0 0 34 28" fill="none" xmlns="http://www.w3.org/2000/svg">
<path d="M30.9815 14C30.9815 21.4609 24.9987 27.5 17.6297 27.5C10.2607 27.5 4.27783 21.4609 4.27783 14C4.27783 6.53913 10.2607 0.5 17.6297 0.5C24.9987 0.5 30.9815 6.53913 30.9815 14Z" stroke="#5E727C"/>
<path fill-rule="evenodd" clip-rule="evenodd" d="M22.4037 16.4269C22.4037 16.4269 23.5236 17.6713 23.8007 18.2471C23.8061 18.2554 23.8103 18.2646 23.8131 18.2743C23.926 18.4871 23.9537 18.6538 23.8983 18.7769C23.8048 18.9803 23.4883 19.0823 23.381 19.0909H21.4015C21.2637 19.0909 20.977 19.0504 20.6279 18.7792C20.3612 18.5696 20.096 18.2245 19.839 17.8871C19.4553 17.3861 19.1236 16.9513 18.7877 16.9513C18.7453 16.9512 18.7031 16.9591 18.663 16.9747C18.4088 17.0651 18.0861 17.4726 18.0861 18.558C18.0861 18.8977 17.8478 19.0909 17.6809 19.0909H16.7743C16.4654 19.0909 14.8572 18.9694 13.4312 17.2778C11.6837 15.2067 10.1143 11.0522 10.0991 11.0155C10.0014 10.7467 10.2064 10.6002 10.4281 10.6002H12.4269C12.6949 10.6002 12.7822 10.7826 12.8431 10.9462C12.9138 11.134 13.1756 11.8851 13.605 12.7289C14.3004 14.1019 14.7277 14.6605 15.0691 14.6605C15.1333 14.6607 15.1964 14.6419 15.252 14.606C15.698 14.3302 15.6149 12.5381 15.5941 12.1687C15.5941 12.097 15.5934 11.3685 15.3649 11.0163C15.2014 10.7639 14.923 10.6657 14.7547 10.6298C14.7997 10.5566 14.8953 10.4444 15.0179 10.3782C15.3233 10.2068 15.8753 10.1818 16.4232 10.1818H16.7272C17.3215 10.1912 17.4752 10.234 17.6913 10.2956C18.1263 10.4125 18.1346 10.7296 18.0965 11.8095C18.0854 12.1181 18.0736 12.4656 18.0736 12.8747C18.0736 12.9619 18.0702 13.0593 18.0702 13.1583C18.057 13.7123 18.0397 14.3364 18.3874 14.5927C18.4325 14.6243 18.4845 14.6411 18.5377 14.641C18.6582 14.641 19.019 14.641 19.9976 12.7515C20.427 11.917 20.7595 10.9329 20.7823 10.8589C20.8017 10.8176 20.8599 10.7015 20.9306 10.6548C20.9808 10.6247 21.0371 10.6097 21.094 10.6111H23.4454C23.7016 10.6111 23.8755 10.6548 23.9094 10.7639C23.9662 10.9407 23.8983 11.4807 22.8248 13.1139C22.644 13.3858 22.4854 13.6211 22.3462 13.8268C21.3731 15.2636 21.3731 15.3361 22.4037 16.4269Z" fill="#5E727C"/>
</svg>
